<svg width="325" height="154" viewBox="0 0 325 154" fill="none" xmlns="http://www.w3.org/2000/svg">
<circle cx="97.0554" cy="77" r="77" fill="#CE0000"/>
<path fill-rule="evenodd" clip-rule="evenodd" d="M62.3675 44.9609L63.5405 46.4445L62.3675 47.928C62.0268 48.4348 61.7096 48.9443 61.4159 49.4566C60.511 51.0344 59.8291 52.6378 59.3699 54.2669C59.0943 55.4076 58.8916 56.7241 58.7617 58.2165C58.6458 59.5474 58.5879 61.0182 58.5879 62.6288V100.257C58.5879 100.984 58.6458 101.664 58.7617 102.298C58.8353 102.701 58.9323 103.084 59.0528 103.449C59.2352 104.002 59.4712 104.512 59.7609 104.978L60.9339 106.596L59.7609 107.945H46.2064L17.2726 56.29V90.2771C17.2726 91.1246 17.2871 91.9322 17.3161 92.6998C17.41 95.1897 17.6561 97.2593 18.0546 98.9088C18.5071 100.447 19.1759 101.961 20.0611 103.449C20.3659 103.962 20.6962 104.471 21.0523 104.978L22.2253 106.596L21.0523 107.945H6.71574L5.80339 105.517C6.12128 105.429 6.42539 105.341 6.71574 105.254C8.09601 104.842 9.16527 104.449 9.9235 104.077C10.1393 103.971 10.3299 103.867 10.4954 103.764C10.6682 103.667 10.8311 103.562 10.984 103.449C11.6769 102.941 12.1656 102.281 12.4504 101.471C12.7979 100.482 12.9717 98.9088 12.9717 96.7509V61.1453C12.9717 60.3379 12.9572 59.5755 12.9282 58.8581C12.8153 56.0597 12.4823 53.9449 11.929 52.5136C11.5506 51.5346 10.9275 50.5155 10.0597 49.4566C9.58349 48.8754 9.03362 48.2823 8.41006 47.6771C8.08278 47.3594 7.73522 47.0385 7.36738 46.7142L8.41006 44.9609H25.3532L54.4173 97.0206V56.1551C54.4173 53.4577 53.8525 51.5695 52.723 50.4906C52.3853 50.1412 51.9247 49.7965 51.3411 49.4566C50.8433 49.1666 50.2561 48.8801 49.5794 48.597C48.7931 48.268 47.8859 47.9437 46.858 47.6241C46.6047 47.5453 46.344 47.4668 46.076 47.3885L46.858 44.9609H62.3675ZM50.0729 80.2519L27.8607 40.4652H13.4302H12.9282H5.9824L1.71656 47.6386L4.5502 50.1365C6.66645 52.002 7.5795 53.3662 7.89534 54.1832C8.26561 55.1411 8.62726 57.2902 8.62726 61.1453V96.7509C8.62726 98.5654 8.48374 99.4869 8.39885 99.8265L8.33671 99.8616L8.26017 99.9091C7.95822 100.097 6.91746 100.551 4.67397 101.176L0 102.478L3.74385 112.441H22.9871L27.8441 106.856L24.5657 102.334C24.5597 102.325 24.5537 102.317 24.5477 102.308C23.442 100.73 22.6946 99.1966 22.2432 97.7081C21.8593 96.058 21.617 93.6265 21.617 90.2771V73.0107L43.7031 112.441H58.0088H58.7617H61.6957L66.5527 106.856L63.3571 102.447C63.1467 102.063 62.9323 101.402 62.9323 100.257V62.6288C62.9323 59.4599 63.1741 57.1021 63.5646 55.4413C64.0164 53.8739 64.7583 52.2717 65.8422 50.6328L69.1537 46.4445L64.4263 40.4652H43.7268L40.5148 50.4365L44.8967 51.7154C46.4669 52.1737 47.6475 52.6093 48.4932 53.004C49.3199 53.3898 49.617 53.6409 49.6486 53.6676L49.7124 53.733L49.7306 53.7504C49.7518 53.7896 49.7941 53.88 49.8435 54.0452C49.9599 54.4341 50.0729 55.1048 50.0729 56.1551V80.2519ZM92.0015 80.6574C92.1097 80.6567 92.218 80.6564 92.3266 80.6564C92.4799 80.6564 92.6392 80.6578 92.8045 80.6606V80.1826L92.0015 80.6574ZM92.7668 76.8249L90.2855 74.6852C89.9772 74.4193 89.5027 73.8368 89.5027 72.0697C89.5027 71.2858 89.6943 71.0397 89.7945 70.9266C89.8353 70.8805 89.8582 70.8662 89.8998 70.849C89.9564 70.8256 90.1336 70.766 90.502 70.766C91.0807 70.766 91.3238 70.8846 91.3977 70.9277C91.4544 70.9608 91.5912 71.0491 91.7709 71.3902L91.7916 71.4293L91.8129 71.4679C92.189 72.1491 92.636 73.7702 92.7668 76.8249ZM97.1489 85.4218C95.3419 85.266 93.8938 85.1777 92.8045 85.1569C92.6367 85.1537 92.4774 85.1521 92.3266 85.1521C90.299 85.1521 88.4114 85.277 86.6638 85.5268C83.1692 86.0263 80.2345 87.0253 77.8597 88.5238C74.2973 90.7716 72.5161 93.8287 72.5161 97.6949C72.5161 101.112 73.5153 103.899 75.5137 106.057C77.5122 108.125 80.1622 109.159 83.464 109.159C86.4182 109.159 89.0248 108.44 91.2839 107.001C91.4427 106.897 91.5993 106.792 91.7537 106.683C92.4712 106.179 93.1415 105.622 93.7644 105.012C94.9746 103.826 96.0063 102.439 96.8597 100.85C96.8692 100.833 96.8787 100.815 96.8882 100.797H97.4095C97.4191 100.903 97.4295 101.008 97.4405 101.112C97.5104 101.771 97.6086 102.388 97.7353 102.963C97.9874 104.108 98.3522 105.088 98.8295 105.903C99.1016 106.368 99.4103 106.779 99.7555 107.136C101.146 108.485 103.144 109.159 105.751 109.159C107.139 109.159 108.467 108.978 109.735 108.616C110.287 108.459 110.826 108.268 111.355 108.043C113.495 107.131 115.45 105.659 117.22 103.629L116.177 102.281C116.107 102.341 116.037 102.4 115.966 102.458C115.918 102.498 115.869 102.537 115.82 102.576C114.369 103.728 112.881 104.304 111.355 104.304C110.738 104.304 110.231 104.145 109.833 103.828C109.11 103.252 108.748 102.151 108.748 100.527V77.1947C108.748 72.8789 107.141 69.4622 103.926 66.9447C101.952 65.3555 99.4926 64.2679 96.5488 63.6819C94.8289 63.3395 92.9437 63.1683 90.8929 63.1683C90.7619 63.1683 90.6316 63.169 90.502 63.1705C88.2436 63.1961 86.1908 63.4451 84.3435 63.9174C82.4986 64.389 80.8587 65.0834 79.4237 66.0006C76.5564 67.7988 75.1228 70.2265 75.1228 73.2835C75.1228 75.3515 75.6441 76.97 76.6867 78.1388C77.7294 79.2178 79.1631 79.7573 80.9877 79.7573C81.6697 79.7573 82.3262 79.7178 82.9573 79.6387C84.6578 79.4257 86.1735 78.9258 87.5043 78.1388C86.3944 77.1817 85.6783 75.8849 85.3561 74.2485C85.2242 73.5791 85.1583 72.8528 85.1583 72.0697C85.1583 70.4421 85.5921 69.1002 86.4596 68.0439C86.5027 67.9915 86.5468 67.9398 86.592 67.8887C87.5478 66.8098 88.8511 66.2703 90.502 66.2703C90.6344 66.2703 90.7647 66.2735 90.8929 66.2798C92.4557 66.3565 93.7102 66.9011 94.6566 67.9133C95.0087 68.29 95.3181 68.7313 95.5849 69.2374C96.6275 71.1256 97.1489 74.2726 97.1489 78.6783V85.4218ZM92.8035 88.2933C94.0492 88.0962 95.4289 87.9934 96.9425 87.9849C97.011 87.9845 97.0798 87.9843 97.1489 87.9843C97.1489 88.6563 97.1364 89.3048 97.1114 89.9298C97.0754 90.8286 97.0135 91.679 96.9259 92.4807C96.7698 93.9081 96.5318 95.1816 96.2118 96.3013C95.8397 97.6033 95.3567 98.6975 94.763 99.5836C94.3275 100.234 93.8324 100.772 93.2777 101.198C93.2175 101.244 93.1565 101.289 93.0949 101.333C92.2242 101.949 91.2134 102.302 90.0622 102.392C89.8654 102.408 89.6644 102.415 89.4593 102.415C87.8084 102.415 86.5051 101.876 85.5493 100.797C84.5936 99.718 84.1157 98.2794 84.1157 96.4811C84.1157 93.7837 85.2018 91.7157 87.374 90.2771C87.568 90.1406 87.7707 90.0101 87.9821 89.8858C89.1607 89.1924 90.6089 88.6887 92.3266 88.3745C92.4833 88.3459 92.6423 88.3188 92.8035 88.2933ZM92.4869 92.9235C91.2497 93.2055 90.3889 93.5922 89.8169 93.9947L89.7668 94.0299L89.7159 94.0637C88.8075 94.6652 88.4601 95.2967 88.4601 96.4811C88.4601 97.4242 88.6894 97.6886 88.7518 97.7591C88.7926 97.8052 88.8156 97.8195 88.8571 97.8367C88.9137 97.8601 89.0909 97.9197 89.4593 97.9197C90.0626 97.9197 90.3842 97.7861 90.576 97.6661C90.7756 97.5413 91.082 97.275 91.4221 96.6368C91.8463 95.8408 92.2315 94.6367 92.4869 92.9235ZM106.57 63.3776C102.428 60.0547 97.027 58.6726 90.8929 58.6726C85.6765 58.6726 80.9957 59.7175 77.1577 62.1649C73.2083 64.6472 70.7784 68.4233 70.7784 73.2835C70.7784 76.1325 71.5101 78.9636 73.4945 81.1882L73.5534 81.2542L73.6148 81.3177C74.7179 82.4593 75.9969 83.2241 77.3634 83.686C76.7559 83.9935 76.1671 84.3263 75.598 84.6854C70.9225 87.6356 68.1717 92.054 68.1717 97.6949C68.1717 102.092 69.4916 106.052 72.3771 109.167L72.4091 109.202L72.4418 109.236C75.3919 112.289 79.2193 113.655 83.464 113.655C87.1281 113.655 90.5411 112.753 93.5608 110.83L93.5798 110.818L93.5987 110.805C94.3539 110.313 95.0695 109.777 95.7452 109.198C96.0304 109.589 96.3426 109.962 96.6836 110.315L96.7331 110.366L96.7842 110.416C99.2367 112.795 102.452 113.655 105.751 113.655C111.522 113.655 116.483 111.184 120.445 106.641L122.919 103.804L116.801 95.8907L113.396 98.8269C113.291 98.9172 113.19 98.9994 113.093 99.0743V77.1947C113.093 71.5375 110.899 66.7775 106.57 63.3776ZM169.979 108.629C168.722 108.982 167.394 109.159 165.995 109.159C162.693 109.159 160.391 108.17 159.087 106.192C158.711 105.579 158.392 104.82 158.132 103.914C157.845 102.915 157.629 101.736 157.484 100.379C157.407 99.6562 157.35 98.8826 157.313 98.0582C157.313 98.0473 157.312 98.0364 157.312 98.0255C157.279 97.282 157.263 96.4975 157.263 95.6719C157.054 96.3502 156.819 97.0074 156.556 97.6434L156.548 97.6626C155.756 99.5808 154.718 101.306 153.437 102.839C152.671 103.756 151.817 104.604 150.876 105.383C150.13 106.018 149.37 106.574 148.596 107.049C146.306 108.456 143.895 109.159 141.362 109.159C137.539 109.159 134.715 107.9 132.89 105.383C131.066 102.865 130.153 98.9987 130.153 93.7837V71.8C130.153 70.9402 129.89 70.374 129.363 70.1015C129.118 69.975 128.817 69.9118 128.459 69.9118H124.419L124.028 68.4282C124.156 68.3157 124.286 68.2045 124.419 68.0949C125.584 67.1322 126.931 66.2822 128.459 65.5451C128.546 65.5034 128.633 65.4621 128.72 65.4211C129.303 65.1488 129.911 64.8923 130.544 64.6519C133.151 63.6628 135.714 63.1683 138.234 63.1683C139.364 63.1683 140.232 63.438 140.841 63.9775C141.536 64.517 141.883 65.2363 141.883 66.1354V93.1094C141.883 96.1664 142.318 98.5491 143.187 100.257C144.056 101.876 145.272 102.685 146.836 102.685C146.937 102.685 147.037 102.683 147.137 102.679C147.628 102.659 148.103 102.591 148.562 102.475C148.581 102.47 148.599 102.466 148.618 102.461C150.295 102.021 151.763 100.934 153.023 99.1987C153.562 98.4563 154.063 97.5954 154.526 96.616C154.674 96.308 154.818 95.9933 154.955 95.6719C155.05 95.452 155.141 95.229 155.23 95.0027C155.274 94.892 155.317 94.7804 155.359 94.6681C156.802 90.8438 157.523 86.1433 157.523 80.5665C157.523 77.0599 157.263 74.3625 156.741 72.4743C156.467 71.2271 156.038 70.0872 155.453 69.0545C155.131 68.4859 154.762 67.9498 154.346 67.4462C154.319 67.4137 154.292 67.3814 154.265 67.3493L153.092 65.8657L154.135 64.6519L169.123 63.438V100.257C169.123 102.024 169.458 103.212 170.129 103.821C170.482 104.143 170.929 104.304 171.469 104.304C172.994 104.304 174.483 103.728 175.934 102.576C175.97 102.547 176.006 102.518 176.043 102.489C176.126 102.421 176.208 102.352 176.291 102.281L177.334 103.629C175.615 105.713 173.66 107.208 171.469 108.114C170.984 108.314 170.487 108.486 169.979 108.629ZM147.046 98.1825C147.991 98.1183 149.244 97.5603 150.623 94.6414L150.631 94.6234L150.64 94.6055C152.237 91.2994 153.179 86.7059 153.179 80.5665C153.179 77.205 152.92 74.9986 152.564 73.7094L152.531 73.5908L152.505 73.4706C152.22 72.1742 151.708 71.1524 150.995 70.3097L150.948 70.2537L147.383 65.7448L152.05 60.3113L173.467 58.5768V98.8633C173.481 98.8513 173.496 98.8392 173.51 98.8269L176.915 95.8907L182.969 103.722L180.638 106.548C176.806 111.193 171.837 113.655 165.995 113.655C161.917 113.655 157.922 112.404 155.498 108.724L155.459 108.665L155.422 108.605C155.245 108.317 155.079 108.017 154.925 107.704C154.504 108.107 154.067 108.497 153.614 108.873C149.994 111.95 145.878 113.655 141.362 113.655C136.561 113.655 132.268 112.017 129.415 108.08C126.762 104.42 125.809 99.3882 125.809 93.7837V74.4074H121.101L119.11 66.8538L121.214 65.0028C123.417 63.0652 126.062 61.5642 129.049 60.431C132.086 59.2787 135.155 58.6726 138.234 58.6726C139.941 58.6726 141.914 59.0691 143.557 60.4678C145.277 61.8543 146.228 63.869 146.228 66.1354V93.1094C146.228 95.7675 146.613 97.3108 147.008 98.117C147.021 98.141 147.034 98.1628 147.046 98.1825ZM203.855 103.449C203.865 103.465 203.874 103.48 203.884 103.494C204.196 103.864 204.703 104.198 205.406 104.496C206.07 104.778 206.91 105.029 207.924 105.248L209.618 105.652L208.836 107.945H188.505L187.462 106.596L188.505 105.248C188.928 104.663 189.295 104.064 189.603 103.449C190.055 102.552 190.384 101.623 190.59 100.662C191.024 98.9537 191.242 96.6609 191.242 93.7837V69.9118H184.595C184.595 68.3833 184.681 67.3942 184.855 66.9447C185.029 66.4951 185.55 66.1354 186.419 65.8657L191.242 64.6519C191.242 56.9193 192.849 50.9851 196.064 46.8491C197.821 44.6484 199.971 43.0331 202.515 42.0034C204.334 41.2671 206.354 40.8302 208.576 40.6925C209.086 40.6609 209.608 40.6451 210.14 40.6451C211.218 40.6451 212.238 40.7131 213.199 40.8491C215.645 41.1951 217.709 41.9812 219.393 43.2076C221.826 44.9159 223.043 47.1638 223.043 49.9511C223.043 52.3787 222.347 54.3568 220.957 55.8853C219.568 57.3231 217.744 58.0424 215.487 58.0433C213.749 58.0433 212.138 57.6836 210.661 56.9643C211.78 55.9997 212.498 54.6901 212.817 53.0355C212.944 52.3768 213.007 51.6633 213.007 50.8952C213.007 48.7372 212.616 47.0289 211.834 45.7701C211.701 45.5552 211.558 45.3586 211.407 45.1804C211.037 44.745 210.615 44.4191 210.14 44.2027C209.67 43.9889 209.149 43.8819 208.576 43.8819C207.127 43.8819 205.951 44.5377 205.046 45.8492C204.865 46.1113 204.695 46.3997 204.535 46.7142C203.58 48.6024 203.102 51.2548 203.102 54.6715V64.6519H212.616C212.616 66.6152 212.22 68.1138 211.427 69.1475C211.203 69.4393 210.948 69.6941 210.661 69.9118H203.102V99.0436C203.102 101.162 203.353 102.631 203.855 103.449ZM207.446 74.4074V99.0436C207.446 99.6552 207.472 100.136 207.509 100.505C207.833 100.611 208.261 100.728 208.81 100.846L208.856 100.856L215.334 102.403L211.91 112.441H186.417L181.898 106.596L185.066 102.499C185.747 101.546 186.15 100.613 186.349 99.6868L186.367 99.602L186.389 99.518C186.688 98.3422 186.897 96.4841 186.897 93.7837V74.4074H180.25V69.9118C180.25 69.0756 180.273 68.2979 180.333 67.6166C180.384 67.0438 180.488 66.1376 180.822 65.275C181.793 62.7618 184.121 61.8856 185.171 61.5596L185.281 61.5255L187.009 61.0905C187.449 54.3157 189.209 48.4954 192.679 44.0314L192.696 44.0085L192.714 43.9859C196.988 38.632 203.011 36.1494 210.14 36.1494C214.551 36.1494 218.583 37.132 221.863 39.5091C225.341 41.9632 227.387 45.5328 227.387 49.9511C227.387 53.3316 226.388 56.4738 224.121 58.9665L224.076 59.0161L224.029 59.0643C222.061 61.1008 219.618 62.1774 216.96 62.4615V64.6519C216.96 67.8495 216.128 71.3378 213.23 73.5371L212.083 74.4074H207.446ZM207.457 53.8756L207.88 53.5106C208.188 53.2447 208.663 52.6623 208.663 50.8952C208.663 49.8653 208.543 49.1832 208.411 48.7472C208.402 48.7643 208.393 48.7819 208.384 48.8002C207.937 49.683 207.526 51.2712 207.457 53.8756ZM240.519 80.6574C240.627 80.6567 240.736 80.6564 240.844 80.6564C240.997 80.6564 241.157 80.6578 241.322 80.6606V80.1826L240.519 80.6574ZM241.284 76.8249L238.803 74.6852C238.495 74.4193 238.02 73.8368 238.02 72.0697C238.02 71.2858 238.212 71.0397 238.312 70.9266C238.353 70.8805 238.376 70.8662 238.417 70.849C238.474 70.8256 238.651 70.766 239.019 70.766C239.598 70.766 239.841 70.8846 239.915 70.9277C239.972 70.9608 240.109 71.0491 240.288 71.3902L240.309 71.4293L240.33 71.4679C240.707 72.1491 241.154 73.7702 241.284 76.8249ZM245.666 85.4218C243.859 85.266 242.411 85.1777 241.322 85.1569C241.154 85.1537 240.995 85.1521 240.844 85.1521C238.816 85.1521 236.929 85.277 235.181 85.5268C231.687 86.0263 228.752 87.0253 226.377 88.5238C222.815 90.7716 221.034 93.8287 221.034 97.6949C221.034 101.112 222.033 103.899 224.031 106.057C226.03 108.125 228.68 109.159 231.982 109.159C234.936 109.159 237.542 108.44 239.801 107.001C239.96 106.897 240.117 106.792 240.271 106.683C240.989 106.179 241.659 105.622 242.282 105.012C243.492 103.826 244.524 102.439 245.377 100.85C245.387 100.833 245.396 100.815 245.406 100.797H245.927C245.937 100.903 245.947 101.008 245.958 101.112C246.028 101.771 246.126 102.388 246.253 102.963C246.505 104.108 246.87 105.088 247.347 105.903C247.619 106.368 247.928 106.779 248.273 107.136C249.663 108.485 251.662 109.159 254.268 109.159C255.656 109.159 256.984 108.978 258.253 108.616C258.804 108.459 259.344 108.268 259.873 108.043C262.012 107.131 263.967 105.659 265.738 103.629L264.695 102.281C264.625 102.341 264.554 102.4 264.484 102.458C264.435 102.498 264.387 102.537 264.338 102.576C262.887 103.728 261.398 104.304 259.873 104.304C259.256 104.304 258.749 104.145 258.351 103.828C257.628 103.252 257.266 102.151 257.266 100.527V77.1947C257.266 72.8789 255.659 69.4622 252.444 66.9447C250.469 65.3555 248.01 64.2679 245.066 63.6819C243.346 63.3395 241.461 63.1683 239.41 63.1683C239.279 63.1683 239.149 63.169 239.019 63.1705C236.761 63.1961 234.708 63.4451 232.861 63.9174C231.016 64.389 229.376 65.0834 227.941 66.0006C225.074 67.7988 223.64 70.2265 223.64 73.2835C223.64 75.3515 224.162 76.97 225.204 78.1388C226.247 79.2178 227.681 79.7573 229.505 79.7573C230.187 79.7573 230.844 79.7178 231.475 79.6387C233.175 79.4257 234.691 78.9258 236.022 78.1388C234.912 77.1817 234.196 75.8849 233.874 74.2485C233.742 73.5791 233.676 72.8528 233.676 72.0697C233.676 70.4421 234.11 69.1002 234.977 68.0439C235.02 67.9915 235.064 67.9398 235.109 67.8887C236.065 66.8098 237.369 66.2703 239.019 66.2703C239.152 66.2703 239.282 66.2735 239.41 66.2798C240.973 66.3565 242.228 66.9011 243.174 67.9133C243.526 68.29 243.836 68.7313 244.102 69.2374C245.145 71.1256 245.666 74.2726 245.666 78.6783V85.4218ZM241.321 88.2933C242.567 88.0962 243.946 87.9934 245.46 87.9849C245.529 87.9845 245.597 87.9843 245.666 87.9843C245.666 88.6563 245.654 89.3048 245.629 89.9298C245.593 90.8286 245.531 91.679 245.443 92.4807C245.287 93.9081 245.049 95.1816 244.729 96.3013C244.357 97.6033 243.874 98.6975 243.28 99.5836C242.845 100.234 242.35 100.772 241.795 101.198C241.735 101.244 241.674 101.289 241.612 101.333C240.742 101.949 239.731 102.302 238.58 102.392C238.383 102.408 238.182 102.415 237.977 102.415C236.326 102.415 235.023 101.876 234.067 100.797C233.111 99.718 232.633 98.2794 232.633 96.4811C232.633 93.7837 233.719 91.7157 235.891 90.2771C236.086 90.1406 236.288 90.0101 236.5 89.8858C237.678 89.1924 239.126 88.6887 240.844 88.3745C241.001 88.3459 241.16 88.3188 241.321 88.2933ZM241.004 92.9235C239.767 93.2055 238.906 93.5922 238.334 93.9947L238.284 94.0299L238.233 94.0637C237.325 94.6652 236.978 95.2967 236.978 96.4811C236.978 97.4242 237.207 97.6886 237.269 97.7591C237.31 97.8052 237.333 97.8195 237.375 97.8367C237.431 97.8601 237.608 97.9197 237.977 97.9197C238.58 97.9197 238.902 97.7861 239.093 97.6661C239.293 97.5413 239.6 97.275 239.94 96.6368C240.364 95.8408 240.749 94.6367 241.004 92.9235ZM255.088 63.3776C250.946 60.0547 245.545 58.6726 239.41 58.6726C234.194 58.6726 229.513 59.7175 225.675 62.1649C221.726 64.6472 219.296 68.4233 219.296 73.2835C219.296 76.1325 220.028 78.9636 222.012 81.1882L222.071 81.2542L222.132 81.3177C223.235 82.4593 224.514 83.2241 225.881 83.686C225.273 83.9935 224.685 84.3263 224.115 84.6854C219.44 87.6356 216.689 92.054 216.689 97.6949C216.689 102.092 218.009 106.052 220.895 109.167L220.927 109.202L220.959 109.236C223.909 112.289 227.737 113.655 231.982 113.655C235.646 113.655 239.059 112.753 242.078 110.83L242.097 110.818L242.116 110.805C242.871 110.313 243.587 109.777 244.263 109.198C244.548 109.589 244.86 109.962 245.201 110.315L245.251 110.366L245.302 110.416C247.754 112.795 250.97 113.655 254.268 113.655C260.039 113.655 265.001 111.184 268.963 106.641L271.437 103.804L265.319 95.8907L261.914 98.8269C261.809 98.9172 261.708 98.9994 261.61 99.0743V77.1947C261.61 71.5375 259.416 66.7775 255.088 63.3776ZM297.28 95.8907L301.322 101.119C301.44 98.0737 303.073 95.4798 304.95 93.4249C306.829 91.2859 309.432 89.1532 312.698 89.1532C315.942 89.1532 318.532 91.2572 320.408 93.3817C322.418 95.4829 324.211 98.2083 324.211 101.471C324.211 104.755 322.395 107.494 320.37 109.601C318.46 111.67 315.877 113.655 312.698 113.655C309.497 113.655 306.9 111.642 304.987 109.558C303.839 108.308 302.779 106.856 302.096 105.224L301.004 106.548C297.172 111.193 292.203 113.655 286.361 113.655C282.782 113.655 279.197 112.824 276.642 110.18L276.595 110.132L276.55 110.082C274.08 107.366 273.284 103.634 273.284 99.8529V52.9632H268.531L266.442 45.7591L268.385 43.8552C270.573 41.7099 273.276 40.155 276.346 39.091C279.448 37.9566 282.575 37.3632 285.709 37.3632C287.367 37.3632 289.276 37.7375 290.891 39.0415C292.764 40.3815 293.703 42.4599 293.703 44.6912V98.9715C293.759 98.9257 293.817 98.8776 293.876 98.8269L297.28 95.8907ZM288.316 42.6681C287.707 42.1286 286.838 41.8589 285.709 41.8589C283.102 41.8589 280.452 42.3534 277.759 43.3425C277.196 43.5365 276.656 43.7473 276.138 43.9749C276.069 44.0049 276.002 44.0352 275.934 44.0657C274.324 44.795 272.934 45.6899 271.763 46.7503C271.63 46.871 271.5 46.9938 271.372 47.1188L271.763 48.4675H275.934C276.264 48.4675 276.545 48.5212 276.779 48.6285C277.345 48.8887 277.628 49.4645 277.628 50.3557V99.8529C277.628 103.09 278.323 105.472 279.714 107.001C281.104 108.44 283.32 109.159 286.361 109.159C287.755 109.159 289.079 108.983 290.332 108.632C290.845 108.489 291.345 108.316 291.834 108.114C294.025 107.208 295.98 105.713 297.699 103.629L296.657 102.281C296.574 102.352 296.491 102.421 296.408 102.489C296.372 102.518 296.336 102.547 296.3 102.576C294.848 103.728 293.36 104.304 291.834 104.304C291.278 104.304 290.815 104.15 290.446 103.843C289.721 103.24 289.358 102.045 289.358 100.257V44.6912C289.358 43.792 289.011 43.1177 288.316 42.6681ZM317.259 96.4811C315.609 94.5929 314.088 93.6488 312.698 93.6488C311.308 93.6488 309.787 94.5929 308.136 96.4811C306.485 98.2794 305.66 99.9428 305.66 101.471C305.66 103 306.485 104.663 308.136 106.461C309.787 108.26 311.308 109.159 312.698 109.159C314.088 109.159 315.609 108.26 317.259 106.461C318.997 104.663 319.866 103 319.866 101.471C319.866 99.9428 318.997 98.2794 317.259 96.4811Z" fill="white"/>
</svg>
